<svg
	viewBox="0 0 140 180"
	role="img"
	aria-labelledby="title"
>
	<title id="title">Loading...</title>
	<path class="rays" id="rays" fill="#F0F3F5" stroke="#6C757C" stroke-width="1.4" stroke-miterlimit="10" d="M102,64.6c0,0-5.1-1.9-7.9-2.1C91,62.2,87.2,62,87.2,62c-2.3-0.3-3.7-0.7-4.5-0.9c0-0.4,0.1-0.8,0.1-1.2
	c0-0.5,0-1-0.1-1.5c0.8-0.3,2.2-0.6,4.5-0.9c0,0,3.8-0.2,6.9-0.4c2.8-0.2,7.9-2.1,7.9-2.1c1.4-0.4,2.2-0.6,6.4-1.7c0,0,0.5,0,0-0.2
	c-0.2-0.1-1.1-0.3-1.1-0.3s-1.5-0.3-4.5-0.4c0,0-1.1,0-1.8,0s-3.1,0-4.9,0.3c-1.8,0.3-6.8,0.1-6.8,0.1s-5.6-0.6-7.6,1.4l-0.1,0.1
	c-0.2-0.4-0.4-0.7-0.6-1.1c0.4-0.3,3.3-2.3,6.3-6.1c0,0,1.8-1.7,4-2.7c2.6-1.1,5.5-4.8,5.5-4.8s1.5-2.3,4.5-3.9c0,0,0.4-0.2-0.1-0.2
	c-0.2,0-0.8,0.2-0.8,0.2s-2,0.9-4.7,2.3c0,0-0.9,0.4-1.5,0.7c-0.6,0.3-2.8,1.4-4.2,2.6c-1.2,1.1-4.7,3.6-4.7,3.6s-6.1,3.7-6.7,5.3
	c-0.4-0.4-0.8-0.7-1.3-1c0.6-0.9,1.3-2.4,1.8-4.6c0,0,0.7-2.4,2.5-4.6c1.8-2.2,2.3-6.8,2.3-6.8s0.2-2.4,2.1-5.2c0,0,0.3-0.4-0.2-0.1
	c-0.2,0.1-0.6,0.6-0.6,0.6s-1.5,1.3-3.3,3.8c0,0-0.6,0.7-1,1.3c-0.4,0.5-1.8,2.6-2.5,4.2c-0.7,1.6-3.4,4.9-3.4,4.9s-1.7,2.2-2.1,4.4
	c-0.5-0.1-0.9-0.2-1.4-0.3c0.9-2.1,0.2-5,0.2-5s-0.9-4.3-0.6-5.9c0.3-1.8,0-4.2-0.1-4.9c0-0.7-0.2-1.6-0.2-1.6c-0.3-3-0.9-5-0.9-5
	s-0.2-0.6-0.3-0.8c-0.2-0.5-0.2,0-0.2,0c0.3,3.4-0.6,5.7-0.6,5.7s-1.8,4.3-1.3,7.1c0.4,2.8-0.1,4.8-0.1,4.8c-0.4,2.6-0.2,4.5,0,5.6
	c-0.5,0.1-1,0.2-1.5,0.4c-0.5-2.4-3-4.6-3-4.6s-2.5-3-3.2-5c-0.6-1.7-2.2-3.7-2.5-4.2c-0.4-0.5-1-1.3-1-1.3C54.5,30,53,28.6,53,28.6
	s-0.4-0.4-0.6-0.6c-0.5-0.3-0.2,0.1-0.2,0.1c2,2.8,2.3,5.2,2.3,5.2s0.9,4.6,2.7,6.8c1.8,2.2,2.4,4.5,2.4,4.5
	c0.8,2.5,1.9,4.1,2.6,4.9c-0.4,0.3-0.8,0.7-1.2,1c-1-2.1-6.3-3.9-6.3-3.9s-3.2-1.5-4.9-3.2c-1.3-1.3-3.6-2.3-4.2-2.6
	c-0.6-0.3-1.5-0.7-1.5-0.7c-2.5-1.6-4-2.5-4-2.5s-0.6-0.2-0.8-0.2c-0.5-0.1-0.1,0.2-0.1,0.2c2,2.1,3.8,4.1,3.8,4.1s2.4,3,4.8,4.5
	c2.3,1.5,4,3.8,4,3.8c2.7,3.1,5.4,3.8,5.4,3.8l1.2,0.2c-0.2,0.4-0.4,0.8-0.6,1.2l-0.2-0.1c-2-2-6.4-1.5-6.4-1.5s-4.4,0.3-5.9-0.1
	c-1.8-0.4-4.2-0.3-4.9-0.3s-1.6,0.1-1.6,0.1c-3.1,0-5,0.6-5,0.6S33.2,54,33,54c-0.5,0.2,0,0.2,0,0.2c3.4-0.1,5.6,1,5.6,1
	s4.3,1.8,7.1,1.6c2.8-0.2,4.8,0.4,4.8,0.4c3.9,1.4,6.3,1.6,6.3,1.6l0.1,0c0,0.4-0.1,0.7-0.1,1.1c0,0.3,0,0.5,0,0.8l-0.1,0
	c0,0-2.5,0.2-6.3,1.6c0,0-2,0.6-4.8,0.4c-2.8-0.2-7.1,1.6-7.1,1.6s-2.2,1.1-5.6,1c0,0-0.5,0,0,0.2c0.2,0.1,0.8,0.2,0.8,0.2
	s2,0.5,5,0.6c0,0,1,0.1,1.6,0.1s3.1,0.2,4.9-0.3c1.6-0.4,5.9-0.1,5.9-0.1s4.4,0.5,6.4-1.5l0.1-0.1c0.1,0.4,0.3,0.8,0.5,1.2l-1,0.2
	c0,0-2.8,0.6-5.4,3.8c0,0-1.7,2.3-4,3.8c-2.4,1.5-4.8,4.5-4.8,4.5s-1.8,2-3.8,4.1c0,0-0.4,0.2,0.1,0.2c0.2,0,0.8-0.2,0.8-0.2
	s1.6-0.8,4-2.5c0,0,0.9-0.4,1.5-0.7c0.6-0.3,2.9-1.3,4.2-2.6c1.7-1.7,4.9-3.2,4.9-3.2s5-1.6,6.2-3.7c0.4,0.4,0.8,0.7,1.2,1
	c-0.7,0.9-1.7,2.4-2.4,4.7c0,0-0.6,2.2-2.4,4.5c-1.8,2.2-2.7,6.8-2.7,6.8s-0.4,2.4-2.3,5.2c0,0-0.3,0.4,0.2,0.1
	c0.2-0.1,0.6-0.6,0.6-0.6s1.5-1.3,3.3-3.8c0,0,0.6-0.7,1-1.3c0.4-0.5,1.9-2.5,2.5-4.2c0.7-2,3.2-5,3.2-5s2.3-2,2.9-4.3
	c0.5,0.2,1,0.3,1.5,0.4c-0.2,1.1-0.3,3,0,5.3c0,0,0.5,2,0.1,4.8c-0.4,2.8,1.3,7.1,1.3,7.1s0.9,2.3,0.6,5.7c0,0,0,0.5,0.2,0
	c0.1-0.2,0.3-0.8,0.3-0.8s0.6-1.9,0.9-5c0,0,0.2-0.9,0.2-1.6c0-0.7,0.4-3.1,0.1-4.9c-0.3-1.6,0.6-5.9,0.6-5.9s0.6-2.6-0.1-4.7
	c0.5-0.1,0.9-0.1,1.3-0.3c0.5,2.2,2.1,4.2,2.1,4.2s2.6,3.4,3.4,4.9c0.8,1.6,2.2,3.7,2.5,4.2c0.4,0.5,1,1.3,1,1.3
	c1.7,2.5,3.3,3.8,3.3,3.8s0.4,0.4,0.6,0.6c0.5,0.3,0.2-0.1,0.2-0.1c-2-2.8-2.1-5.2-2.1-5.2s-0.5-4.6-2.3-6.8
	c-1.8-2.2-2.5-4.6-2.5-4.6c-0.5-2-1.1-3.4-1.7-4.3c0.4-0.3,0.9-0.7,1.2-1c1,1.7,6.6,5.1,6.6,5.1s3.5,2.5,4.7,3.6
	c1.3,1.2,3.6,2.3,4.2,2.6c0.6,0.3,1.5,0.7,1.5,0.7c2.7,1.4,4.7,2.3,4.7,2.3s0.6,0.2,0.8,0.2c0.5,0.1,0.1-0.2,0.1-0.2
	c-3-1.6-4.5-3.9-4.5-3.9s-2.9-3.7-5.5-4.8c-2.3-1-4-2.7-4-2.7c-2.7-3.5-5.4-5.5-6.1-6c0.2-0.3,0.4-0.7,0.5-1l0,0
	c2,2,7.6,1.4,7.6,1.4s5-0.2,6.8,0.1c1.8,0.3,4.2,0.3,4.9,0.3s1.8,0,1.8,0c3.1,0,4.5-0.4,4.5-0.4s0.9-0.2,1.1-0.3
	c0.5-0.2,0-0.2,0-0.2C104.2,65.1,103.5,65,102,64.6z"/>
	<g id="sun_1_">
		<circle class="st5" fill="#F0F3F5" stroke="#6C757C" stroke-width="1.4" stroke-miterlimit="10" cx="69.9" cy="59.9" r="13"/>
	</g>
	<g id="sun_eyes__x26__mouth">
		<g>
			<path fill="#6C757C" d="M67.1,55.7c0,0.8-0.7,1.4-1.5,1.4c-0.8,0-1.4-0.7-1.4-1.5l0-0.2c-0.1-0.2-0.8-0.4-1.7,0.2
				c-0.5,0.3-1,0.1-0.2-0.6c0.9-0.8,1.7-1.2,2.5-1.3l0,0c1.2-0.1,2.9,0.2,3.6,0.5c0.3,0.1,0,1.7-0.1,1.7c-0.3-0.1-0.8-0.3-1.3-0.2
				L67.1,55.7"/>
			<path fill="#6C757C" d="M71.2,60c-0.3,0.7-2.8,1-3.3,0c-0.2-0.4-0.4-1.3-0.1-1.1c0.6,0.3,2.6,0.1,3,0c0.3-0.1,0.1-0.6,0.3-0.5
				C71.4,58.4,71.4,59.3,71.2,60"/>
			<path fill="#6C757C" d="M77.2,55.9c-0.6-0.5-1.5-0.8-1.8-0.5l0,0.1c0.1,0.8-0.5,1.5-1.3,1.5c-0.8,0.1-1.5-0.5-1.5-1.3v-0.1
				c-0.5-0.2-1.3,0.1-1.4,0.1c-0.1,0-0.4-1.5,0-1.7c1.2-0.5,5.2-0.7,6.4,1.5C77.7,55.9,77.6,56.2,77.2,55.9"/>
		</g>
	</g>
	<g id="cover">
		<line stroke="#F0F3F5" x1="26" y1="72" x2="114" y2="72"
			stroke-width="9" />
	</g>
	<g id="shield">
		<path fill="#F0F3F5" d="M32.5,76.4l74.2,0.1v41.7c0,0,2.8,30-36.8,36.2c0,0-36.3-2.9-37.2-35.4L32.5,76.4z"/>
		<g>
			<path fill="none" d="M46.4,82.8c-1.8,0.1-3.6,0.8-4.7,0.6v12.3c0,0,0.7,0.5,2.5,0c2.4-0.7,3.4,0.1,3.4,0.1V83.3
			C47.7,83.3,47.4,82.8,46.4,82.8z"/>
			<path fill="none" d="M93.1,82.8c-1,0-1.3,0.5-1.3,0.5v12.4c0,0,1.1-0.7,3.5-0.1c1.8,0.5,2.5,0,2.5,0V83.4
			C96.7,83.6,94.9,82.8,93.1,82.8z"/>
			<path fill="none" d="M105.7,77.3H76.2v26.8h29.5V77.3z M101.3,98.6h-8.5v1.1h-3.5v-1.1h-8.5V84.3h1.8v-2.6
			c1.8,0.4,4.8-0.6,6.2-0.6c1.5,0,2.2,0.6,2.2,0.6s0.8-0.6,2.2-0.6c1.3,0,4.3,1,6.2,0.6v2.6h1.8V98.6z"/>
			<path fill="none" d="M63.3,77.3H33.8v26.8h29.5V77.3z M58.8,98.6h-8.5v1.1h-3.5v-1.1h-8.5V84.3h1.8v-2.6c1.8,0.4,4.8-0.6,6.2-0.6
			c1.5,0,2.2,0.6,2.2,0.6s0.8-0.6,2.2-0.6c1.3,0,4.3,1,6.2,0.6v2.6h1.8V98.6z"/>
			<path fill="none" d="M50.8,82.8c-1,0-1.3,0.5-1.3,0.5v12.4c0,0,1.1-0.7,3.5-0.1c1.8,0.5,2.5,0,2.5,0V83.4
			C54.5,83.6,52.7,82.8,50.8,82.8z"/>
			<path fill="none" d="M47.7,134.3v-12.4c0,0-0.3-0.6-1.3-0.5c-1.8,0.1-3.6,0.8-4.7,0.6v12.3c0,0,0.7,0.5,2.5,0
			C46.6,133.6,47.7,134.3,47.7,134.3z"/>
			<path fill="none" d="M53,134.3c1.8,0.5,2.5,0,2.5,0V122c-1.1,0.2-2.9-0.5-4.7-0.6c-1,0-1.3,0.5-1.3,0.5v12.4
			C49.6,134.3,50.6,133.6,53,134.3z"/>
			<path fill="none" d="M38.4,135.7v-12.8h1.8v-2.6c1.8,0.4,4.8-0.6,6.2-0.6c1.5,0,2.2,0.6,2.2,0.6s0.8-0.6,2.2-0.6
			c1.3,0,4.3,1,6.2,0.6v2.6h1.8v14.3h-8.5v1.1h-3.5v-1.1h-7.5c1.2,1.8,2.6,3.5,4.3,5.1c4.7,4.4,12.1,7.4,19.7,9.6v-35.8H33.8
			l0.1,1.1C34.1,124.6,35.5,130.7,38.4,135.7z"/>
			<polygon fill="none" points="64.9,152.4 69.8,153.7 74.7,152.4 74.7,114.4 105.7,114.4 105.7,105.7 74.7,105.7 74.7,77.3
			64.9,77.3 64.9,105.7 33.8,105.7 33.8,114.4 64.9,114.4 		"/>
			<path fill="none" d="M88.7,82.8c-1.8,0.1-3.6,0.8-4.7,0.6v12.3c0,0,0.7,0.5,2.5,0c2.4-0.7,3.4,0.1,3.4,0.1V83.3
			C90,83.3,89.7,82.8,88.7,82.8z"/>
			<path fill="none" d="M76.2,116.1V152c7.4-2.2,14.8-5,19.8-9.6c1.8-1.6,3.2-3.3,4.5-5.1h-7.6v1.1h-3.5v-1.1h-8.5v-14.3h1.8v-2.6
			c1.8,0.4,4.8-0.6,6.2-0.6c1.5,0,2.2,0.6,2.2,0.6s0.8-0.6,2.2-0.6c1.3,0,4.3,1,6.2,0.6v2.6h1.8v12.9c2.7-4.7,4-10.5,4.4-18.5
			l-0.1-1.2H76.2z"/>
			<path fill="none" d="M84.2,122v12.3c0,0,0.7,0.5,2.5,0c2.4-0.7,3.5,0.1,3.5,0.1v-12.4c0,0-0.3-0.6-1.3-0.5
			C87.1,121.4,85.3,122.2,84.2,122z"/>
			<path fill="none" d="M92.1,121.9v12.4c0,0,1.1-0.7,3.4-0.1c1.8,0.5,2.5,0,2.5,0V122c-1.1,0.2-2.9-0.5-4.7-0.6
			C92.3,121.3,92.1,121.9,92.1,121.9z"/>
			<path fill="#6C757C" d="M32,115.1c0,13.1,3.3,22.2,10.3,28.5c6.9,6.3,17.4,9.5,27.5,11.9c10.5-2.5,20.5-5.5,27.5-11.9
			c7-6.4,10.3-15.4,10.3-28.5V75.5H32V115.1z M101.3,135.8v-12.9h-1.8v-2.6c-1.8,0.4-4.8-0.6-6.2-0.6c-1.5,0-2.2,0.6-2.2,0.6
			s-0.8-0.6-2.2-0.6c-1.3,0-4.3,1-6.2,0.6v2.6h-1.8v14.3h8.5v1.1h3.5v-1.1h7.6c-1.2,1.8-2.7,3.5-4.5,5.1c-5,4.6-12.4,7.4-19.8,9.6
			v-35.9h29.5l0.1,1.2C105.4,125.4,104.1,131.1,101.3,135.8z M98,122v12.3c0,0-0.7,0.5-2.5,0c-2.4-0.7-3.4,0.1-3.4,0.1v-12.4
			c0,0,0.3-0.6,1.3-0.5C95.2,121.4,97,122.2,98,122z M90.2,121.9v12.4c0,0-1.1-0.7-3.5-0.1c-1.8,0.5-2.5,0-2.5,0V122
			c1.1,0.2,2.9-0.5,4.7-0.6C89.9,121.3,90.2,121.9,90.2,121.9z M76.2,77.3h29.5v26.8H76.2V77.3z M33.8,77.3h29.5v26.8H33.8V77.3z
			 M33.8,105.7h31.1V77.3h9.8v28.4h31.1v8.7H74.7v38l-4.9,1.2l-4.9-1.3v-38H33.8V105.7z M63.3,116.1v35.8c-7.6-2.2-15-5.2-19.7-9.6
			c-1.7-1.6-3.1-3.3-4.3-5.1h7.5v1.1h3.5v-1.1h8.5v-14.3H57v-2.6c-1.8,0.4-4.8-0.6-6.2-0.6c-1.5,0-2.2,0.6-2.2,0.6s-0.8-0.6-2.2-0.6
			c-1.3,0-4.3,1-6.2,0.6v2.6h-1.8v12.8c-2.9-5-4.3-11.1-4.6-18.5l-0.1-1.1H63.3z M41.7,134.3V122c1.1,0.2,2.9-0.5,4.7-0.6
			c1,0,1.3,0.5,1.3,0.5v12.4c0,0-1.1-0.7-3.5-0.1C42.4,134.8,41.7,134.3,41.7,134.3z M49.6,134.3v-12.4c0,0,0.3-0.6,1.3-0.5
			c1.8,0.1,3.6,0.8,4.7,0.6v12.3c0,0-0.7,0.5-2.5,0C50.6,133.6,49.6,134.3,49.6,134.3z"/>
			<path fill="#6C757C" d="M57,81.7c-1.8,0.4-4.8-0.6-6.2-0.6c-1.5,0-2.2,0.6-2.2,0.6s-0.8-0.6-2.2-0.6c-1.3,0-4.3,1-6.2,0.6v2.6h-1.8
			v14.3h8.5v1.1h3.5v-1.1h8.5V84.3H57V81.7z M47.7,95.7c0,0-1.1-0.7-3.4-0.1c-1.8,0.5-2.5,0-2.5,0V83.4c1.1,0.2,2.9-0.5,4.7-0.6
			c1,0,1.3,0.5,1.3,0.5V95.7z M55.5,95.7c0,0-0.7,0.5-2.5,0c-2.4-0.7-3.5,0.1-3.5,0.1V83.3c0,0,0.3-0.6,1.3-0.5
			c1.8,0.1,3.6,0.8,4.7,0.6V95.7z"/>
			<path fill="#6C757C" d="M99.5,81.7c-1.8,0.4-4.8-0.6-6.2-0.6c-1.5,0-2.2,0.6-2.2,0.6s-0.8-0.6-2.2-0.6c-1.3,0-4.3,1-6.2,0.6v2.6h-1.8
			v14.3h8.5v1.1h3.5v-1.1h8.5V84.3h-1.8V81.7z M90,95.7c0,0-1.1-0.7-3.4-0.1c-1.8,0.5-2.5,0-2.5,0V83.4c1.1,0.2,2.9-0.5,4.7-0.6
			c1,0,1.3,0.5,1.3,0.5V95.7z M97.8,95.7c0,0-0.7,0.5-2.5,0c-2.4-0.7-3.5,0.1-3.5,0.1V83.3c0,0,0.3-0.6,1.3-0.5
			c1.8,0.1,3.6,0.8,4.7,0.6V95.7z"/>
		</g>
	</g>
	<g id="clouds_of_ignorance">
		<path class="st5" fill="#F0F3F5" stroke="#6C757C" stroke-width="1.4" stroke-miterlimit="10" d="M41,40.3c0,0,0.6-4.1,5.8-4.6c0,0,0.4-8.5,10.9-4.5c0,0,0,0,0,0c0,0,2.2-9.3,12.4-3.8c0,0,8.3-5.3,13.7,4.3
		c0,0,6.9-2.8,7.9,3.5c0,0,7.6-2.7,9.4,3.8c0,0,5.7-0.2,4.7,5.7c0,0-0.5,5-9,1.9c0,0-7.7,3.9-11.1-4.8c0,0-6.4,1.9-8.4-4.6
		c0,0,0,0,0,0c0,0-6.1,4.1-10.8-0.5c0,0-3,4.1-8.6,3.2c0,0-2.7,3.3-7.3,2.2c0,0,1.6,7.7-9.4,6.2c0,0-4.3,2.5-6.3-1.8
		C32.9,41.9,41,40.3,41,40.3z"/>
		<path class="st6" fill="none" stroke="#6C757C" stroke-width="1.4" stroke-linecap="round" stroke-miterlimit="10" d="M36.7,45.7c0,0,0.3-3.5,4.8-3.1"/>
		<path class="st7" fill="none" stroke="#6C757C" stroke-width="1.4" stroke-linecap="round" stroke-linejoin="round" stroke-miterlimit="10" d="M43.3,41c0,0,0.5-2.8,3.7-2.7"/>
		<path class="st7" fill="none" stroke="#6C757C" stroke-width="1.4" stroke-linecap="round" stroke-linejoin="round" stroke-miterlimit="10" d="M48.9,36.9c0,0,1.3-5.6,6.6-3.7"/>
		<path class="st7" fill="none" stroke="#6C757C" stroke-width="1.4" stroke-linecap="round" stroke-linejoin="round" stroke-miterlimit="10" d="M60.2,31.4c0,0,3.9-5.2,8.2-1.5"/>
		<path class="st7" fill="none" stroke="#6C757C" stroke-width="1.4" stroke-linecap="round" stroke-linejoin="round" stroke-miterlimit="10" d="M70.7,30.8c0,0,6.4-5,10.4,2.1"/>
		<path class="st7" fill="none" stroke="#6C757C" stroke-width="1.4" stroke-linecap="round" stroke-linejoin="round" stroke-miterlimit="10" d="M84.1,34.3c0,0,4.5-2,5.3,2"/>
		<path class="st7" fill="none" stroke="#6C757C" stroke-width="1.4" stroke-linecap="round" stroke-linejoin="round" stroke-miterlimit="10" d="M92,38.2c0,0,5-2.3,6.7,2.4"/>
		<path class="st7" fill="none" stroke="#6C757C" stroke-width="1.4" stroke-linecap="round" stroke-linejoin="round" stroke-miterlimit="10" d="M100.1,41.8c0.1,0,3.7-0.8,3.1,3.1"/>
	</g>
	<g id="decor">
		<path class="st8" fill="#F0F3F5" stroke="#6C757C" stroke-width="1.4" stroke-linecap="round" stroke-linejoin="round" stroke-miterlimit="10" d="M43.4,62.8c0,0-5.9-3.7-9.7,0.4c0,0-1.6,1.8-0.3,4.3c1.5,2.8,4.9,2.7,6.9,0.9c0,0,1.8,2.8,6.5,0.1
		c0,0,5.6,2.7,11.6-0.1c0,0,2,2.4,6.3,0.4c0,0,2.7,2.4,6.3-0.2c0,0,6.5,3,11.9-0.3c0,0,2.3,2.6,6.1,0.4c0,0,2.6,2.6,6.4-0.2
		c0,0,3.3,2,8.4,0.7c0,0,3.1-0.8,2.3-3.2c-1-2.9-3.8-6.3-13.6-3.1c0,0-6.7-2.9-12.4,0.5c0,0-4.7-3.7-12.1,0c0,0-3.1-3.6-12.4-0.4
		C55.4,63,51.1,59.3,43.4,62.8z"/>
		<path class="st9" fill="#FFFFFF" stroke="#6C757C" stroke-width="1.4" stroke-linecap="round" stroke-linejoin="round" stroke-miterlimit="10" d="M37.1,65.4c0,0,1.1,0,1.6,0.8c0.5,0.8,1.6,2.1,1.6,2.1"/>
		<path class="st9" fill="#FFFFFF" stroke="#6C757C" stroke-width="1.4" stroke-linecap="round" stroke-linejoin="round" stroke-miterlimit="10" d="M43.2,62.6c0,0,1.2,1.4,1.7,2.8s1.7,3.1,2.8,3.5"/>
		<path class="st9" fill="#FFFFFF" stroke="#6C757C" stroke-width="1.4" stroke-linecap="round" stroke-linejoin="round" stroke-miterlimit="10" d="M55.7,63.2c0.4,0.5,1,1.4,1.3,2.3c0.5,1.4,1.5,3.3,2.7,3.7"/>
		<path class="st9" fill="#FFFFFF" stroke="#6C757C" stroke-width="1.4" stroke-linecap="round" stroke-linejoin="round" stroke-miterlimit="10" d="M67.9,63.4c0.4,0.5,0.8,1.3,1.1,2c0.4,1.1,1.2,2.4,2.1,3"/>
		<path class="st9" fill="#FFFFFF" stroke="#6C757C" stroke-width="1.4" stroke-linecap="round" stroke-linejoin="round" stroke-miterlimit="10" d="M79.5,63.1c0.4,0.5,0.8,1.3,1.1,2c0.4,1.1,1.2,2.4,2.1,3"/>
		<path class="st9" fill="#FFFFFF" stroke="#6C757C" stroke-width="1.4" stroke-linecap="round" stroke-linejoin="round" stroke-miterlimit="10" d="M92.2,63c0.4,0.5,0.8,1.3,1.1,2c0.4,1.1,1,2.6,1.9,3.3"/>
		<path class="st9" fill="#FFFFFF" stroke="#6C757C" stroke-width="1.4" stroke-linecap="round" stroke-linejoin="round" stroke-miterlimit="10" d="M61.2,65.4c0,0,0.9,0,1.7,1.1s1.8,2.4,2.5,2.7"/>
		<path class="st9" fill="#FFFFFF" stroke="#6C757C" stroke-width="1.4" stroke-linecap="round" stroke-linejoin="round" stroke-miterlimit="10" d="M85.8,65.6c0,0,1,0.2,1.6,1.2c0.6,1,1.9,2.3,2.8,2.7"/>
	</g>
</svg>
